<?xml version="1.0" encoding="utf-8"?>
<!-- Generator: Adobe Illustrator 26.0.2, SVG Export Plug-In . SVG Version: 6.00 Build 0)  -->
<svg version="1.1" id="Layer_1" xmlns="http://www.w3.org/2000/svg" xmlns:xlink="http://www.w3.org/1999/xlink" x="0px" y="0px"
	 viewBox="0 0 50 50" style="enable-background:new 0 0 50 50;" xml:space="preserve">
<style type="text/css">
	.st0{fill:#594848;}
	.st1{fill:#FBFBFB;}
	.st2{fill:#FCFCFC;}
	.st3{fill:#FAF9F9;}
</style>
<g>
	<g>
		<path class="st0" d="M0,50C0,33.34,0,16.68,0,0c16.65,0,33.3,0,50,0c0,16.65,0,33.33,0,50C33.35,50,16.68,50,0,50z M27.47,21.38
			c0-0.51,0-0.8,0-1.08c-0.02-1.61-0.38-1.97-1.99-1.98c-1.58-0.01-3.17-0.01-4.75,0c-1.01,0.01-1.53,0.5-1.53,1.54
			c0.01,7.71,0,15.42,0,23.13c0,1.04,0.51,1.52,1.54,1.51c1.58-0.02,3.17,0,4.75,0c1.63,0,1.98-0.35,1.98-1.96
			c0-3.83-0.09-7.67,0.05-11.5c0.05-1.36,0.48-2.79,1.07-4.03c0.73-1.54,2.22-2.05,3.89-1.92c1.71,0.14,2.91,1.04,3.37,2.69
			c0.28,1.03,0.43,2.12,0.44,3.19c0.05,3.92,0.03,7.83,0.01,11.75c0,1.01,0.28,1.75,1.43,1.76c1.88,0.02,3.75,0.01,5.63-0.01
			c0.9-0.01,1.41-0.5,1.4-1.4c-0.07-5.5,0.02-11-0.29-16.49c-0.21-3.56-1.68-6.79-5.4-7.98C34.87,17.28,30.82,17.53,27.47,21.38z
			 M7.23,31.46c0,3.75-0.01,7.5,0,11.25c0,1.36,0.42,1.78,1.79,1.79c1.58,0.01,3.17,0.02,4.75,0c1.27-0.01,1.72-0.46,1.72-1.73
			c0.01-7.54,0.01-15.08,0-22.62c0-1.35-0.44-1.8-1.79-1.82c-1.54-0.02-3.08-0.02-4.63,0c-1.43,0.02-1.84,0.44-1.84,1.89
			C7.23,23.96,7.23,27.71,7.23,31.46z M11.3,5.49C8.38,5.51,6,7.92,6.02,10.85c0.02,2.91,2.45,5.33,5.34,5.33
			c2.89-0.01,5.33-2.44,5.35-5.33C16.74,7.89,14.29,5.46,11.3,5.49z"/>
		<path class="st1" d="M27.47,21.38c3.35-3.85,7.4-4.1,11.59-2.77c3.72,1.18,5.2,4.42,5.4,7.98c0.32,5.48,0.23,10.99,0.29,16.49
			c0.01,0.9-0.49,1.39-1.4,1.4c-1.88,0.02-3.75,0.03-5.63,0.01c-1.15-0.01-1.43-0.75-1.43-1.76c0.02-3.92,0.04-7.84-0.01-11.75
			c-0.01-1.07-0.16-2.16-0.44-3.19c-0.46-1.66-1.65-2.55-3.37-2.69c-1.67-0.14-3.17,0.38-3.89,1.92c-0.59,1.24-1.02,2.67-1.07,4.03
			c-0.14,3.83-0.05,7.67-0.05,11.5c0,1.62-0.35,1.96-1.98,1.96c-1.58,0-3.17-0.01-4.75,0c-1.03,0.01-1.54-0.47-1.54-1.51
			c0-7.71,0-15.42,0-23.13c0-1.04,0.53-1.53,1.53-1.54c1.58-0.01,3.17-0.01,4.75,0c1.61,0.01,1.98,0.37,1.99,1.98
			C27.47,20.58,27.47,20.87,27.47,21.38z"/>
		<path class="st2" d="M7.23,31.46c0-3.75,0-7.5,0-11.25c0-1.45,0.41-1.87,1.84-1.89c1.54-0.02,3.08-0.02,4.63,0
			c1.35,0.02,1.79,0.47,1.79,1.82c0.01,7.54,0.01,15.08,0,22.62c0,1.27-0.45,1.72-1.72,1.73c-1.58,0.02-3.17,0.01-4.75,0
			c-1.37-0.01-1.78-0.43-1.79-1.79C7.23,38.96,7.23,35.21,7.23,31.46z"/>
		<path class="st3" d="M11.3,5.49c2.99-0.02,5.44,2.4,5.42,5.36c-0.02,2.89-2.47,5.32-5.35,5.33c-2.89,0.01-5.32-2.41-5.34-5.33
			C6,7.92,8.38,5.51,11.3,5.49z"/>
	</g>
</g>
</svg>
